<svg width="40" height="38" viewBox="0 0 40 38" fill="none" xmlns="http://www.w3.org/2000/svg">
<path d="M26.9147 3.16675H13.1977C7.23951 3.16675 3.6875 6.60258 3.6875 12.3659V25.6184C3.6875 31.3976 7.23951 34.8334 13.1977 34.8334H26.8983C32.8565 34.8334 36.4085 31.3976 36.4085 25.6342V12.3659C36.4249 6.60258 32.8729 3.16675 26.9147 3.16675ZM27.8804 15.3584L18.5994 24.3359C18.3702 24.5576 18.0592 24.6842 17.7318 24.6842C17.4045 24.6842 17.0935 24.5576 16.8643 24.3359L12.232 19.8551C11.7573 19.3959 11.7573 18.6359 12.232 18.1767C12.7067 17.7176 13.4923 17.7176 13.967 18.1767L17.7318 21.8184L26.1454 13.6801C26.62 13.2209 27.4057 13.2209 27.8804 13.6801C28.3551 14.1392 28.3551 14.8834 27.8804 15.3584Z" fill="#00A693"/>
</svg>
