<svg width="17" height="17" viewBox="0 0 17 17" fill="none" xmlns="http://www.w3.org/2000/svg">
<path d="M4.9503 13.3964C4.04203 13.3964 3.30716 14.1129 3.30716 14.9886C3.30716 15.8644 4.04203 16.5809 4.9503 16.5809C5.85858 16.5809 6.60171 15.8644 6.60171 14.9886C6.60171 14.1129 5.85858 13.3964 4.9503 13.3964ZM-0.00390625 0.658691V2.25091H1.6475L4.62002 8.29337L3.50533 10.2438C3.37321 10.4668 3.2989 10.7295 3.2989 11.0081C3.2989 11.8838 4.04203 12.6003 4.9503 12.6003H14.8587V11.0081H5.2971C5.1815 11.0081 5.09067 10.9205 5.09067 10.8091L5.11545 10.7135L5.85858 9.41589H12.0101C12.6293 9.41589 13.1743 9.08948 13.455 8.59589L16.411 3.42915C16.4771 3.31769 16.5101 3.18236 16.5101 3.04702C16.5101 2.60916 16.1386 2.25091 15.6844 2.25091H3.4723L2.69614 0.658691H-0.00390625ZM13.2073 13.3964C12.2991 13.3964 11.5642 14.1129 11.5642 14.9886C11.5642 15.8644 12.2991 16.5809 13.2073 16.5809C14.1156 16.5809 14.8587 15.8644 14.8587 14.9886C14.8587 14.1129 14.1156 13.3964 13.2073 13.3964Z" fill="white"/>
</svg>
