<svg width="25" height="24" viewBox="0 0 25 24" fill="none" xmlns="http://www.w3.org/2000/svg">
<path d="M8.5 18H10V16H12V14.5H10V12.5H8.5V14.5H6.5V16H8.5V18ZM13.5 17.25H18.5V15.75H13.5V17.25ZM13.5 14.75H18.5V13.25H13.5V14.75ZM14.6 10.95L16 9.55L17.4 10.95L18.45 9.9L17.05 8.45L18.45 7.05L17.4 6L16 7.4L14.6 6L13.55 7.05L14.95 8.45L13.55 9.9L14.6 10.95ZM6.75 9.2H11.75V7.7H6.75V9.2ZM5.5 21C4.95 21 4.47917 20.8042 4.0875 20.4125C3.69583 20.0208 3.5 19.55 3.5 19V5C3.5 4.45 3.69583 3.97917 4.0875 3.5875C4.47917 3.19583 4.95 3 5.5 3H19.5C20.05 3 20.5208 3.19583 20.9125 3.5875C21.3042 3.97917 21.5 4.45 21.5 5V19C21.5 19.55 21.3042 20.0208 20.9125 20.4125C20.5208 20.8042 20.05 21 19.5 21H5.5ZM5.5 19H19.5V5H5.5V19Z" fill="white"/>
</svg>
