<svg width="40" height="38" viewBox="0 0 40 38" fill="none" xmlns="http://www.w3.org/2000/svg">
<path d="M26.9147 3.16675H13.1977C7.23951 3.16675 3.6875 6.60258 3.6875 12.3659V25.6184C3.6875 31.3976 7.23951 34.8334 13.1977 34.8334H26.8983C32.8565 34.8334 36.4085 31.3976 36.4085 25.6342V12.3659C36.4249 6.60258 32.8729 3.16675 26.9147 3.16675ZM25.5561 22.6417C26.0308 23.1009 26.0308 23.8609 25.5561 24.3201C25.3105 24.5576 24.9995 24.6684 24.6885 24.6684C24.3775 24.6684 24.0665 24.5576 23.821 24.3201L20.0562 20.6784L16.2914 24.3201C16.0459 24.5576 15.7349 24.6684 15.4239 24.6684C15.1129 24.6684 14.8018 24.5576 14.5563 24.3201C14.0816 23.8609 14.0816 23.1009 14.5563 22.6417L18.3211 19.0001L14.5563 15.3584C14.0816 14.8992 14.0816 14.1392 14.5563 13.6801C15.031 13.2209 15.8167 13.2209 16.2914 13.6801L20.0562 17.3217L23.821 13.6801C24.2957 13.2209 25.0814 13.2209 25.5561 13.6801C26.0308 14.1392 26.0308 14.8992 25.5561 15.3584L21.7913 19.0001L25.5561 22.6417Z" fill="#F9461C"/>
</svg>
