<svg width="20" height="20" viewBox="0 0 20 20" fill="none" xmlns="http://www.w3.org/2000/svg">
<path d="M2.50016 13.3333C2.05572 13.3333 1.66683 13.1667 1.3335 12.8333C1.00016 12.5 0.833496 12.1111 0.833496 11.6667V10C0.833496 9.90278 0.847385 9.79861 0.875163 9.6875C0.902941 9.57639 0.930718 9.47222 0.958496 9.375L3.4585 3.5C3.5835 3.22222 3.79183 2.98611 4.0835 2.79167C4.37516 2.59722 4.68072 2.5 5.00016 2.5H14.1668V13.3333L9.16683 18.2917C8.9585 18.5 8.71197 18.6215 8.42725 18.6562C8.14252 18.691 7.86822 18.6389 7.60433 18.5C7.34044 18.3611 7.146 18.1667 7.021 17.9167C6.896 17.6667 6.86822 17.4097 6.93766 17.1458L7.87516 13.3333H2.50016ZM12.5002 12.625V4.16667H5.00016L2.50016 10V11.6667H10.0002L8.87516 16.25L12.5002 12.625ZM16.6668 2.5C17.1252 2.5 17.5175 2.66319 17.8439 2.98958C18.1703 3.31597 18.3335 3.70833 18.3335 4.16667V11.6667C18.3335 12.125 18.1703 12.5174 17.8439 12.8437C17.5175 13.1701 17.1252 13.3333 16.6668 13.3333H14.1668V11.6667H16.6668V4.16667H14.1668V2.5H16.6668Z" fill="#C8CCCF"/>
</svg>
