<svg width="62" height="78" viewBox="0 0 62 78" fill="none" xmlns="http://www.w3.org/2000/svg">
<path d="M26.9313 52.5062L48.825 30.6125L43.3031 25.0906L26.9313 41.4625L18.7938 33.325L13.2719 38.8469L26.9313 52.5062ZM31 77.5C22.0229 75.2396 14.612 70.0891 8.76719 62.0484C2.9224 54.0078 0 45.0792 0 35.2625V11.625L31 0L62 11.625V35.2625C62 45.0792 59.0776 54.0078 53.2328 62.0484C47.388 70.0891 39.9771 75.2396 31 77.5ZM31 69.3625C37.7167 67.2312 43.2708 62.9687 47.6625 56.575C52.0542 50.1812 54.25 43.0771 54.25 35.2625V16.9531L31 8.23438L7.75 16.9531V35.2625C7.75 43.0771 9.94583 50.1812 14.3375 56.575C18.7292 62.9687 24.2833 67.2312 31 69.3625Z" fill="#004B85"/>
</svg>
