<svg width="57" height="56" viewBox="0 0 57 56" fill="none" xmlns="http://www.w3.org/2000/svg">
<path d="M17.1 55.9038C12.2972 55.9038 8.24653 54.2964 4.94792 51.0818C1.64931 47.8671 0 43.9194 0 39.2388C0 37.2843 0.343056 35.3812 1.02917 33.5296C1.71528 31.6779 2.69167 30.0063 3.95833 28.5147L15.2 15.3216L7.52083 0.354004H49.4792L41.8 15.3216L53.0417 28.5147C54.3083 30.0063 55.2847 31.6779 55.9708 33.5296C56.6569 35.3812 57 37.2843 57 39.2388C57 43.9194 55.3375 47.8671 52.0125 51.0818C48.6875 54.2964 44.65 55.9038 39.9 55.9038H17.1ZM28.5 40.4733C26.7583 40.4733 25.2674 39.8689 24.0271 38.6602C22.7868 37.4515 22.1667 35.9984 22.1667 34.3011C22.1667 32.6037 22.7868 31.1507 24.0271 29.942C25.2674 28.7333 26.7583 28.1289 28.5 28.1289C30.2417 28.1289 31.7326 28.7333 32.9729 29.942C34.2132 31.1507 34.8333 32.6037 34.8333 34.3011C34.8333 35.9984 34.2132 37.4515 32.9729 38.6602C31.7326 39.8689 30.2417 40.4733 28.5 40.4733ZM20.9792 12.6984H36.0208L39.1875 6.5262H17.8125L20.9792 12.6984ZM17.1 49.7316H39.9C42.9083 49.7316 45.4549 48.7157 47.5396 46.6841C49.6243 44.6524 50.6667 42.1706 50.6667 39.2388C50.6667 38.0044 50.4424 36.8085 49.9937 35.6513C49.5451 34.494 48.925 33.4524 48.1333 32.5266L36.4958 18.8706H20.5833L8.86667 32.4494C8.075 33.3753 7.45486 34.4297 7.00625 35.6127C6.55764 36.7957 6.33333 38.0044 6.33333 39.2388C6.33333 42.1706 7.37569 44.6524 9.46042 46.6841C11.5451 48.7157 14.0917 49.7316 17.1 49.7316Z" fill="#004B85"/>
</svg>
