<svg width="67" height="67" viewBox="0 0 67 67" fill="none" xmlns="http://www.w3.org/2000/svg">
<path d="M31.5427 51.7494C26.4094 51.482 22.0781 49.5035 18.549 45.8139C15.0198 42.1244 13.2552 37.6862 13.2552 32.4994C13.2552 27.1521 15.1267 22.607 18.8698 18.8639C22.6128 15.1209 27.158 13.2493 32.5052 13.2493C37.692 13.2493 42.1302 15.0139 45.8198 18.5431C49.5094 22.0723 51.4879 26.4035 51.7552 31.5369L45.0177 29.5316C44.3226 26.6441 42.8254 24.278 40.526 22.4332C38.2267 20.5884 35.5531 19.666 32.5052 19.666C28.976 19.666 25.9549 20.9226 23.4417 23.4358C20.9285 25.949 19.6719 28.9702 19.6719 32.4994C19.6719 35.5473 20.5943 38.2209 22.4391 40.5202C24.2839 42.8195 26.65 44.3167 29.5375 45.0119L31.5427 51.7494ZM35.3927 64.4223C34.9115 64.5292 34.4302 64.5827 33.949 64.5827H32.5052C28.067 64.5827 23.8962 63.7405 19.9927 62.0561C16.0892 60.3717 12.6938 58.0858 9.80625 55.1983C6.91875 52.3108 4.63281 48.9153 2.94844 45.0119C1.26406 41.1084 0.421875 36.9375 0.421875 32.4994C0.421875 28.0612 1.26406 23.8903 2.94844 19.9869C4.63281 16.0834 6.91875 12.6879 9.80625 9.80039C12.6938 6.91289 16.0892 4.62695 19.9927 2.94258C23.8962 1.2582 28.067 0.416016 32.5052 0.416016C36.9434 0.416016 41.1142 1.2582 45.0177 2.94258C48.9212 4.62695 52.3167 6.91289 55.2042 9.80039C58.0917 12.6879 60.3776 16.0834 62.062 19.9869C63.7464 23.8903 64.5885 28.0612 64.5885 32.4994V33.9431C64.5885 34.4244 64.5351 34.9056 64.4281 35.3869L58.1719 33.4619V32.4994C58.1719 25.3341 55.6854 19.265 50.7125 14.2921C45.7396 9.31914 39.6705 6.83268 32.5052 6.83268C25.3399 6.83268 19.2708 9.31914 14.2979 14.2921C9.325 19.265 6.83854 25.3341 6.83854 32.4994C6.83854 39.6646 9.325 45.7337 14.2979 50.7066C19.2708 55.6796 25.3399 58.166 32.5052 58.166H33.4677L35.3927 64.4223ZM59.8563 66.1869L46.1406 52.4712L42.1302 64.5827L32.5052 32.4994L64.5885 42.1244L52.4771 46.1348L66.1927 59.8504L59.8563 66.1869Z" fill="#004B85"/>
</svg>
