<svg width="20" height="20" viewBox="0 0 20 20" fill="none" xmlns="http://www.w3.org/2000/svg">
<path d="M17.4998 6.66634C17.9443 6.66634 18.3332 6.83301 18.6665 7.16634C18.9998 7.49967 19.1665 7.88856 19.1665 8.33301V9.99967C19.1665 10.0969 19.1526 10.2011 19.1248 10.3122C19.0971 10.4233 19.0693 10.5275 19.0415 10.6247L16.5415 16.4997C16.4165 16.7775 16.2082 17.0136 15.9165 17.208C15.6248 17.4025 15.3193 17.4997 14.9998 17.4997H5.83317V6.66634L10.8332 1.70801C11.0415 1.49967 11.288 1.37815 11.5728 1.34342C11.8575 1.3087 12.1318 1.36079 12.3957 1.49967C12.6596 1.63856 12.854 1.83301 12.979 2.08301C13.104 2.33301 13.1318 2.58995 13.0623 2.85384L12.1248 6.66634H17.4998ZM7.49984 7.37467V15.833H14.9998L17.4998 9.99967V8.33301H9.99984L11.1248 3.74967L7.49984 7.37467ZM3.33317 17.4997C2.87484 17.4997 2.48248 17.3365 2.15609 17.0101C1.8297 16.6837 1.6665 16.2913 1.6665 15.833V8.33301C1.6665 7.87467 1.8297 7.48231 2.15609 7.15592C2.48248 6.82954 2.87484 6.66634 3.33317 6.66634H5.83317V8.33301H3.33317V15.833H5.83317V17.4997H3.33317Z" fill="#C8CCCF"/>
</svg>
