<svg width="18" height="19" viewBox="0 0 18 19" fill="none" xmlns="http://www.w3.org/2000/svg">
<path d="M16.6 18.5L10.3 12.2C9.8 12.6 9.225 12.9167 8.575 13.15C7.925 13.3833 7.23333 13.5 6.5 13.5C4.68333 13.5 3.14167 12.875 1.875 11.625C0.625 10.3583 0 8.81667 0 7C0 5.18333 0.625 3.65 1.875 2.4C3.14167 1.13333 4.68333 0.499999 6.5 0.499999C8.31667 0.499999 9.85 1.13333 11.1 2.4C12.3667 3.65 13 5.18333 13 7C13 7.73333 12.8833 8.425 12.65 9.075C12.4167 9.725 12.1 10.3 11.7 10.8L18 17.1L16.6 18.5ZM6.5 11.5C7.75 11.5 8.80833 11.0667 9.675 10.2C10.5583 9.31667 11 8.25 11 7C11 5.75 10.5583 4.69167 9.675 3.825C8.80833 2.94167 7.75 2.5 6.5 2.5C5.25 2.5 4.18333 2.94167 3.3 3.825C2.43333 4.69167 2 5.75 2 7C2 8.25 2.43333 9.31667 3.3 10.2C4.18333 11.0667 5.25 11.5 6.5 11.5Z" fill="#004B85"/>
</svg>
