<svg width="10" height="15" viewBox="0 0 10 15" fill="none" xmlns="http://www.w3.org/2000/svg">
<path d="M0.5 0C0.776142 0 1 0.223858 1 0.5V1.73333L2.14711 1.50391C3.24747 1.28384 4.38807 1.38856 5.42995 1.80531L5.56571 1.85962C6.60649 2.27593 7.75198 2.35367 8.83946 2.0818C9.3443 1.95559 9.83333 2.33742 9.83333 2.85779V7.76914C9.83333 8.19867 9.541 8.57308 9.12429 8.67726L8.98131 8.713C7.80162 9.00793 6.55898 8.92359 5.42995 8.47198C4.38807 8.05523 3.24747 7.95051 2.14711 8.17058L1 8.4V13.8333C1 14.1095 0.776142 14.3333 0.5 14.3333C0.223858 14.3333 0 14.1095 0 13.8333V0.5C0 0.223858 0.223858 0 0.5 0Z" fill="#004B85"/>
</svg>
